<?xml version="1.0" encoding="UTF-8"?>
<svg xmlns="http://www.w3.org/2000/svg" xmlns:xlink="http://www.w3.org/1999/xlink" viewBox="0 0 850 567">
  <defs>
    <style>
      .cls-1 {
        fill: none;
      }

      .cls-2, .cls-3, .cls-4 {
        fill: #fff;
      }

      .cls-2, .cls-5 {
        fill-rule: evenodd;
      }

      .cls-6 {
        clip-path: url(#clippath-1);
      }

      .cls-7, .cls-5 {
        fill: #7d0e8c;
      }

      .cls-8 {
        fill: #141414;
      }

      .cls-4 {
        font-family: InclusiveSans-Bold, 'Inclusive Sans';
        font-size: 48px;
        font-variation-settings: 'wght' 700;
        font-weight: 700;
      }

      .cls-9 {
        letter-spacing: -.02em;
      }

      .cls-10 {
        letter-spacing: -.02em;
      }

      .cls-11 {
        clip-path: url(#clippath);
      }
    </style>
    <clipPath id="clippath">
      <rect class="cls-1" x="638.87" y="330.17" width="100" height="100"/>
    </clipPath>
    <clipPath id="clippath-1">
      <rect class="cls-1" x="638.87" y="330.17" width="100" height="100"/>
    </clipPath>
  </defs>
  <g id="Hintergrund">
    <rect class="cls-8" width="850" height="567"/>
  </g>
  <g id="Logo">
    <g>
      <path class="cls-2" d="M82.42,226.01h85.95l22.48,41.79-18.82,32.95-14,12.73-34.24,6.34v27.35l12.19,5.05v12.57l-14.42,11.8h-53.56v-13.02l12.19-9.97v-97.77l-12.19-5.05v-12.97l14.42-11.8ZM133.29,362.82h-49.05v-8.8l12.19-5.05v-106.02l-12.19-5.05v-9.2h82.52l21.01,39.06-17.68,30.96-33.86,7.39h-15.13v42.86l12.19,5.05v8.8ZM136.07,239.62l22.4,10.96,7.87,17.15-7.85,14.67-22.43,12.18-14.94-3.36v-48.18l14.96-3.43ZM145.67,286.29l4.1-7.57-6.91-15.06-19.07-9.34v34.75l11.86,2.66,10.02-5.45Z"/>
      <path class="cls-3" d="M449.44,375.18h-27.52v-67.68h27.69c20.04,0,31.17,9.08,31.17,33.66s-10.51,34.11-31.34,34.02ZM435.19,363.33h12.38c12.38,0,19.06-4.81,19.06-21.99,0-16.21-5.88-21.99-19.06-21.99h-12.38v43.99Z"/>
      <path class="cls-3" d="M354.98,375.18v-67.68h12.82l29.03,45.95v-45.95h13.36v67.68h-13.27l-28.67-44.35v44.35h-13.27Z"/>
      <path class="cls-3" d="M315.64,376.6c-21.64,0-27.6-12.38-27.6-29.92v-39.18h13.27v34.46c0,13.45.89,22.8,14.34,22.8s14.25-9.35,14.25-22.8v-34.46h13.36v39.18c0,17.99-6.23,29.92-27.6,29.92Z"/>
      <path class="cls-3" d="M276.36,320.68h-33.84v13.62h33.47v12.29h-33.47v28.58h-13.18v-67.68h47.02v13.18Z"/>
      <path class="cls-3" d="M745.76,281.94h36.24v13.18h-49.42v-67.68h47.91v13.18h-34.73v13.62h31.61v12.29h-31.61v15.41Z"/>
      <path class="cls-3" d="M675.19,295.12v-67.68h26.18c13.53,0,22.8,6.95,22.8,20.57s-9.44,20.57-23.78,20.57h-11.93v26.54h-13.27ZM688.45,256.92h10.06c6.68,0,11.75-2.4,11.75-8.73s-4.72-9.17-11.75-9.17h-10.06v17.9Z"/>
      <path class="cls-3" d="M629.63,295.12v-23.6l-23.51-44.08h14.78l15.4,32.15,15.32-32.15h14.78l-23.51,44.08v23.6h-13.27Z"/>
      <path class="cls-3" d="M601.5,240.62h-20.48v54.5h-13.27v-54.5h-20.48v-13.18h54.23v13.18Z"/>
      <path class="cls-3" d="M509.48,296.54c-21.64,0-34.11-15.32-34.11-35.26s12.47-35.26,34.11-35.26,34.02,15.32,34.02,35.26-12.47,35.26-34.02,35.26ZM509.39,284.7c12.82,0,19.77-11.13,19.77-23.42s-6.95-23.42-19.77-23.42-19.77,11.13-19.77,23.42,6.95,23.42,19.77,23.42Z"/>
      <path class="cls-3" d="M471.66,240.62h-20.48v54.5h-13.27v-54.5h-20.48v-13.18h54.23v13.18Z"/>
      <path class="cls-3" d="M379.65,296.54c-21.64,0-34.11-15.32-34.11-35.26s12.47-35.26,34.11-35.26,34.02,15.32,34.02,35.26-12.47,35.26-34.02,35.26ZM379.56,284.7c12.82,0,19.77-11.13,19.77-23.42s-6.95-23.42-19.77-23.42-19.77,11.13-19.77,23.42,6.95,23.42,19.77,23.42Z"/>
      <path class="cls-3" d="M288.04,295.12v-67.68h25.38c14.25,0,23.6,6.77,23.6,19.68,0,11.93-8.46,18.08-20.84,19.32l24.67,28.67h-16.21l-23.33-27.69v27.69h-13.27ZM301.31,256.12h10.69c5.61,0,11.04-2.32,11.04-8.37s-4.72-8.73-11.67-8.73h-10.06v17.1Z"/>
      <path class="cls-3" d="M229.34,295.12v-67.68h26.18c13.54,0,22.8,6.95,22.8,20.57s-9.44,20.57-23.78,20.57h-11.93v26.54h-13.27ZM242.61,256.92h10.06c6.68,0,11.75-2.4,11.75-8.73s-4.72-9.17-11.75-9.17h-10.06v17.9Z"/>
    </g>
    <text class="cls-4" transform="translate(68 130.09)"><tspan x="0" y="0">UN</tspan><tspan class="cls-10" x="68.45" y="0">T</tspan><tspan x="96.1" y="0">ERSTÜTZT DU</tspan><tspan class="cls-9" x="415.15" y="0">R</tspan><tspan x="447.74" y="0">CH:</tspan></text>
  </g>
  <g id="Pattern">
    <g id="shape-04">
      <path class="cls-5" d="M671.87,463.17h-33v34h33v-34ZM655.37,488.17c4.14,0,7.5-3.36,7.5-7.5s-3.36-7.5-7.5-7.5-7.5,3.36-7.5,7.5,3.36,7.5,7.5,7.5Z"/>
      <path class="cls-5" d="M738.87,463.17h-33v34h33v-34ZM722.37,488.17c4.14,0,7.5-3.36,7.5-7.5s-3.36-7.5-7.5-7.5-7.5,3.36-7.5,7.5,3.36,7.5,7.5,7.5Z"/>
      <path class="cls-5" d="M705.87,497.17h-34v33h34v-33ZM689.37,521.17c4.14,0,7.5-3.36,7.5-7.5s-3.36-7.5-7.5-7.5-7.5,3.36-7.5,7.5,3.36,7.5,7.5,7.5Z"/>
      <path class="cls-5" d="M705.87,430.17h-34v33h34v-33ZM689.37,454.17c4.14,0,7.5-3.36,7.5-7.5s-3.36-7.5-7.5-7.5-7.5,3.36-7.5,7.5,3.36,7.5,7.5,7.5Z"/>
    </g>
    <g id="shape-08">
      <path class="cls-7" d="M538.87,430.17h17v17h-17v-17Z"/>
      <path class="cls-7" d="M621.87,513.17h17v17h-17v-17Z"/>
      <path class="cls-7" d="M555.87,447.17h16v16h-16v-16Z"/>
      <path class="cls-7" d="M605.87,497.17h16v16h-16v-16Z"/>
      <path class="cls-7" d="M605.87,430.17h16v17h-16v-17Z"/>
      <path class="cls-7" d="M538.87,497.17h17v16h-17v-16Z"/>
      <path class="cls-7" d="M621.87,447.17h17v16h-17v-16Z"/>
      <path class="cls-7" d="M555.87,513.17h16v17h-16v-17Z"/>
    </g>
    <g id="shape-09">
      <g class="cls-11">
        <g class="cls-6">
          <path class="cls-7" d="M679.87,343.17c0,2.21-1.79,4-4,4s-4-1.79-4-4,1.79-4,4-4,4,1.79,4,4"/>
          <path class="cls-7" d="M667.87,355.17c0,2.21-1.79,4-4,4s-4-1.79-4-4,1.79-4,4-4,4,1.79,4,4"/>
          <path class="cls-7" d="M655.87,367.17c0,2.21-1.79,4-4,4s-4-1.79-4-4,1.79-4,4-4,4,1.79,4,4"/>
          <path class="cls-7" d="M679.87,367.17c0,2.21-1.79,4-4,4s-4-1.79-4-4,1.79-4,4-4,4,1.79,4,4"/>
          <path class="cls-7" d="M655.87,343.17c0,2.21-1.79,4-4,4s-4-1.79-4-4,1.79-4,4-4,4,1.79,4,4"/>
          <path class="cls-7" d="M729.87,393.17c0,2.21-1.79,4-4,4s-4-1.79-4-4,1.79-4,4-4,4,1.79,4,4"/>
          <path class="cls-7" d="M705.87,393.17c0,2.21-1.79,4-4,4s-4-1.79-4-4,1.79-4,4-4,4,1.79,4,4"/>
          <path class="cls-7" d="M729.87,417.17c0,2.21-1.79,4-4,4s-4-1.79-4-4,1.79-4,4-4,4,1.79,4,4"/>
          <path class="cls-7" d="M717.87,405.17c0,2.21-1.79,4-4,4s-4-1.79-4-4,1.79-4,4-4,4,1.79,4,4"/>
          <path class="cls-7" d="M705.87,417.17c0,2.21-1.79,4-4,4s-4-1.79-4-4,1.79-4,4-4,4,1.79,4,4"/>
        </g>
      </g>
    </g>
  </g>
</svg>