<?xml version="1.0" encoding="UTF-8" standalone="no"?><!DOCTYPE svg PUBLIC "-//W3C//DTD SVG 1.1//EN" "http://www.w3.org/Graphics/SVG/1.1/DTD/svg11.dtd"><svg width="100%" height="100%" viewBox="0 0 1084 334" version="1.1" xmlns="http://www.w3.org/2000/svg" xmlns:xlink="http://www.w3.org/1999/xlink" xml:space="preserve" xmlns:serif="http://www.serif.com/" style="fill-rule:evenodd;clip-rule:evenodd;stroke-linejoin:round;stroke-miterlimit:2;"><g><path d="M170.833,20.833l0,25c0,2.3 -1.867,4.167 -4.167,4.167l-25,0c-2.3,0 -4.167,-1.867 -4.167,-4.167l0,-25c0,-2.3 1.867,-4.167 4.167,-4.167l25,0c2.3,0 4.167,1.867 4.167,4.167Z" style="fill:#7da3c6;"/><path d="M137.5,54.167l0,25c0,2.3 -1.867,4.167 -4.167,4.167l-25,0c-2.3,0 -4.167,-1.867 -4.167,-4.167l0,-25c0,-2.3 1.867,-4.167 4.167,-4.167l25,0c2.3,0 4.167,1.867 4.167,4.167Z" style="fill:#e8d5c4;"/><path d="M204.167,54.167l0,25c0,2.3 -1.867,4.167 -4.167,4.167l-25,0c-2.3,0 -4.167,-1.867 -4.167,-4.167l0,-25c0,-2.3 1.867,-4.167 4.167,-4.167l25,0c2.3,0 4.167,1.867 4.167,4.167Z" style="fill:#e8d5c4;"/><path d="M104.167,87.5l0,25c0,2.3 -1.867,4.167 -4.167,4.167l-25,0c-2.3,0 -4.167,-1.867 -4.167,-4.167l0,-25c0,-2.3 1.867,-4.167 4.167,-4.167l25,0c2.3,0 4.167,1.867 4.167,4.167Z" style="fill:#e8d5c4;"/><path d="M170.833,87.5l0,25c0,2.3 -1.867,4.167 -4.167,4.167l-25,0c-2.3,0 -4.167,-1.867 -4.167,-4.167l0,-25c0,-2.3 1.867,-4.167 4.167,-4.167l25,0c2.3,0 4.167,1.867 4.167,4.167Z" style="fill:#e8d5c4;"/><path d="M237.5,87.5l0,25c0,2.3 -1.867,4.167 -4.167,4.167l-25,0c-2.3,0 -4.167,-1.867 -4.167,-4.167l0,-25c0,-2.3 1.867,-4.167 4.167,-4.167l25,0c2.3,0 4.167,1.867 4.167,4.167Z" style="fill:#e8d5c4;"/><path d="M137.5,120.833l0,25c0,2.3 -1.867,4.167 -4.167,4.167l-25,0c-2.3,0 -4.167,-1.867 -4.167,-4.167l0,-25c0,-2.3 1.867,-4.167 4.167,-4.167l25,0c2.3,0 4.167,1.867 4.167,4.167Z" style="fill:#e8d5c4;"/><path d="M204.167,120.833l0,25c0,2.3 -1.867,4.167 -4.167,4.167l-25,0c-2.3,0 -4.167,-1.867 -4.167,-4.167l0,-25c0,-2.3 1.867,-4.167 4.167,-4.167l25,0c2.3,0 4.167,1.867 4.167,4.167Z" style="fill:#e8d5c4;"/><path d="M170.833,154.167l0,25c0,2.3 -1.867,4.167 -4.167,4.167l-25,0c-2.3,0 -4.167,-1.867 -4.167,-4.167l0,-25c0,-2.3 1.867,-4.167 4.167,-4.167l25,0c2.3,0 4.167,1.867 4.167,4.167Z" style="fill:#7da3c6;"/><path d="M137.5,187.5l0,25c0,2.3 -1.867,4.167 -4.167,4.167l-25,0c-2.3,0 -4.167,-1.867 -4.167,-4.167l0,-25c0,-2.3 1.867,-4.167 4.167,-4.167l25,0c2.3,0 4.167,1.867 4.167,4.167Z" style="fill:#e8d5c4;"/><path d="M204.167,187.5l0,25c0,2.3 -1.867,4.167 -4.167,4.167l-25,0c-2.3,0 -4.167,-1.867 -4.167,-4.167l0,-25c0,-2.3 1.867,-4.167 4.167,-4.167l25,0c2.3,0 4.167,1.867 4.167,4.167Z" style="fill:#e8d5c4;"/><path d="M104.167,220.833l0,25c0,2.3 -1.867,4.167 -4.167,4.167l-25,0c-2.3,0 -4.167,-1.867 -4.167,-4.167l0,-25c0,-2.3 1.867,-4.167 4.167,-4.167l25,0c2.3,0 4.167,1.867 4.167,4.167Z" style="fill:#e8d5c4;"/><path d="M170.833,220.833l0,25c0,2.3 -1.867,4.167 -4.167,4.167l-25,0c-2.3,0 -4.167,-1.867 -4.167,-4.167l0,-25c0,-2.3 1.867,-4.167 4.167,-4.167l25,0c2.3,0 4.167,1.867 4.167,4.167Z" style="fill:#e8d5c4;"/><path d="M237.5,220.833l0,25c0,2.3 -1.867,4.167 -4.167,4.167l-25,0c-2.3,0 -4.167,-1.867 -4.167,-4.167l0,-25c0,-2.3 1.867,-4.167 4.167,-4.167l25,0c2.3,0 4.167,1.867 4.167,4.167Z" style="fill:#e8d5c4;"/><path d="M137.5,254.167l0,25c0,2.3 -1.867,4.167 -4.167,4.167l-25,0c-2.3,0 -4.167,-1.867 -4.167,-4.167l0,-25c0,-2.3 1.867,-4.167 4.167,-4.167l25,0c2.3,0 4.167,1.867 4.167,4.167Z" style="fill:#e8d5c4;"/><path d="M204.167,254.167l0,25c0,2.3 -1.867,4.167 -4.167,4.167l-25,0c-2.3,0 -4.167,-1.867 -4.167,-4.167l0,-25c0,-2.3 1.867,-4.167 4.167,-4.167l25,0c2.3,0 4.167,1.867 4.167,4.167Z" style="fill:#e8d5c4;"/><path d="M170.833,287.5l0,25c0,2.3 -1.867,4.167 -4.167,4.167l-25,0c-2.3,0 -4.167,-1.867 -4.167,-4.167l0,-25c0,-2.3 1.867,-4.167 4.167,-4.167l25,0c2.3,0 4.167,1.867 4.167,4.167Z" style="fill:#7da3c6;"/></g><g transform="matrix(156.999851,0,0,156.999851,285.812845,223.116002)"><path d="M0.234,-0l0,-0.591l-0.204,0l-0,-0.109l0.543,0l0,0.109l-0.204,0l0,0.591l-0.134,-0Z" style="fill:#f8f5f0;fill-rule:nonzero;"/></g><g transform="matrix(156.999851,0,0,156.999851,381.376769,223.116002)"><path d="M0.072,-0l0,-0.526l0.135,0l0,0.526l-0.135,-0Zm0.068,-0.588c-0.024,0 -0.044,-0.007 -0.06,-0.022c-0.015,-0.015 -0.023,-0.033 -0.023,-0.054c0,-0.022 0.008,-0.04 0.023,-0.055c0.015,-0.014 0.035,-0.021 0.06,-0.021c0.025,0 0.045,0.007 0.06,0.021c0.016,0.014 0.023,0.032 0.023,0.055c0,0.022 -0.008,0.04 -0.023,0.054c-0.016,0.015 -0.036,0.022 -0.06,0.022Z" style="fill:#f8f5f0;fill-rule:nonzero;"/></g><g transform="matrix(156.999851,0,0,156.999851,426.13771,223.116002)"><path d="M0.069,-0l0,-0.526l0.119,0l0.01,0.066c0.016,-0.024 0.037,-0.043 0.064,-0.057c0.027,-0.014 0.056,-0.021 0.089,-0.021c0.025,0 0.047,0.003 0.066,0.01c0.02,0.006 0.037,0.016 0.051,0.028c0.015,0.012 0.027,0.028 0.036,0.046c0.019,-0.027 0.043,-0.048 0.072,-0.062c0.029,-0.015 0.061,-0.022 0.095,-0.022c0.044,0 0.08,0.008 0.108,0.025c0.028,0.017 0.049,0.041 0.063,0.072c0.014,0.032 0.021,0.07 0.021,0.114l0,0.327l-0.134,-0l0,-0.314c0,-0.036 -0.008,-0.063 -0.024,-0.082c-0.016,-0.019 -0.039,-0.028 -0.068,-0.028c-0.02,0 -0.037,0.005 -0.053,0.014c-0.016,0.009 -0.028,0.023 -0.037,0.041c-0.009,0.018 -0.013,0.04 -0.013,0.065l0,0.305l-0.134,-0l0,-0.314c0,-0.036 -0.008,-0.063 -0.024,-0.082c-0.016,-0.019 -0.039,-0.028 -0.07,-0.028c-0.019,0 -0.036,0.005 -0.051,0.014c-0.015,0.009 -0.027,0.023 -0.036,0.041c-0.009,0.018 -0.013,0.04 -0.013,0.065l0,0.305l-0.135,-0Z" style="fill:#f8f5f0;fill-rule:nonzero;"/></g><g transform="matrix(156.999851,0,0,156.999851,573.641409,223.116002)"><path d="M0.306,0.012c-0.05,0 -0.094,-0.011 -0.132,-0.034c-0.038,-0.023 -0.068,-0.054 -0.089,-0.095c-0.021,-0.041 -0.032,-0.088 -0.032,-0.141c0,-0.055 0.011,-0.103 0.032,-0.145c0.021,-0.042 0.051,-0.075 0.089,-0.099c0.038,-0.024 0.083,-0.036 0.133,-0.036c0.052,0 0.096,0.011 0.133,0.034c0.037,0.023 0.065,0.054 0.084,0.093c0.019,0.039 0.029,0.084 0.029,0.134c0,0.007 -0,0.014 -0,0.022c-0,0.008 -0.001,0.016 -0.002,0.025l-0.401,0l0,-0.083l0.268,0c-0.001,-0.037 -0.012,-0.065 -0.032,-0.086c-0.021,-0.02 -0.047,-0.031 -0.078,-0.031c-0.023,0 -0.043,0.006 -0.061,0.017c-0.018,0.012 -0.033,0.029 -0.044,0.051c-0.011,0.023 -0.016,0.052 -0.016,0.087l0,0.029c0,0.03 0.005,0.056 0.014,0.078c0.01,0.022 0.023,0.039 0.041,0.051c0.018,0.012 0.039,0.018 0.064,0.018c0.027,0 0.048,-0.005 0.062,-0.014c0.014,-0.009 0.025,-0.021 0.034,-0.037l0.138,0c-0.009,0.03 -0.025,0.057 -0.046,0.082c-0.022,0.025 -0.048,0.044 -0.08,0.058c-0.031,0.014 -0.067,0.021 -0.106,0.021Z" style="fill:#f8f5f0;fill-rule:nonzero;"/></g><g transform="matrix(156.999851,0,0,156.999851,668.875119,223.116002)"><path d="M0.234,-0l0,-0.591l-0.204,0l-0,-0.109l0.543,0l0,0.109l-0.204,0l0,0.591l-0.134,-0Z" style="fill:#f8f5f0;fill-rule:nonzero;"/></g><g transform="matrix(156.999851,0,0,156.999851,764.439043,223.116002)"><path d="M0.072,-0l0,-0.526l0.135,0l0,0.526l-0.135,-0Zm0.068,-0.588c-0.024,0 -0.044,-0.007 -0.06,-0.022c-0.015,-0.015 -0.023,-0.033 -0.023,-0.054c0,-0.022 0.008,-0.04 0.023,-0.055c0.015,-0.014 0.035,-0.021 0.06,-0.021c0.025,0 0.045,0.007 0.06,0.021c0.016,0.014 0.023,0.032 0.023,0.055c0,0.022 -0.008,0.04 -0.023,0.054c-0.016,0.015 -0.036,0.022 -0.06,0.022Z" style="fill:#f8f5f0;fill-rule:nonzero;"/></g><g transform="matrix(156.999851,0,0,156.999851,809.199984,223.116002)"><rect x="0.069" y="-0.72" width="0.135" height="0.72" style="fill:#f8f5f0;fill-rule:nonzero;"/></g><g transform="matrix(156.999851,0,0,156.999851,852.986384,223.116002)"><path d="M0.306,0.012c-0.05,0 -0.094,-0.011 -0.132,-0.034c-0.038,-0.023 -0.068,-0.054 -0.089,-0.095c-0.021,-0.041 -0.032,-0.088 -0.032,-0.141c0,-0.055 0.011,-0.103 0.032,-0.145c0.021,-0.042 0.051,-0.075 0.089,-0.099c0.038,-0.024 0.083,-0.036 0.133,-0.036c0.052,0 0.096,0.011 0.133,0.034c0.037,0.023 0.065,0.054 0.084,0.093c0.019,0.039 0.029,0.084 0.029,0.134c0,0.007 -0,0.014 -0,0.022c-0,0.008 -0.001,0.016 -0.002,0.025l-0.401,0l0,-0.083l0.268,0c-0.001,-0.037 -0.012,-0.065 -0.032,-0.086c-0.021,-0.02 -0.047,-0.031 -0.078,-0.031c-0.023,0 -0.043,0.006 -0.061,0.017c-0.018,0.012 -0.033,0.029 -0.044,0.051c-0.011,0.023 -0.016,0.052 -0.016,0.087l0,0.029c0,0.03 0.005,0.056 0.014,0.078c0.01,0.022 0.023,0.039 0.041,0.051c0.018,0.012 0.039,0.018 0.064,0.018c0.027,0 0.048,-0.005 0.062,-0.014c0.014,-0.009 0.025,-0.021 0.034,-0.037l0.138,0c-0.009,0.03 -0.025,0.057 -0.046,0.082c-0.022,0.025 -0.048,0.044 -0.08,0.058c-0.031,0.014 -0.067,0.021 -0.106,0.021Z" style="fill:#f8f5f0;fill-rule:nonzero;"/></g><g transform="matrix(156.999851,0,0,156.999851,948.220095,223.116002)"><path d="M0.273,0.012c-0.052,0 -0.095,-0.008 -0.128,-0.023c-0.034,-0.015 -0.059,-0.036 -0.075,-0.062c-0.017,-0.026 -0.026,-0.056 -0.028,-0.089l0.135,0c0.002,0.013 0.006,0.025 0.013,0.035c0.007,0.011 0.017,0.019 0.031,0.026c0.014,0.006 0.031,0.01 0.051,0.01c0.018,-0 0.033,-0.003 0.045,-0.008c0.012,-0.005 0.022,-0.012 0.028,-0.021c0.006,-0.009 0.01,-0.02 0.01,-0.032c0,-0.016 -0.004,-0.028 -0.012,-0.037c-0.008,-0.009 -0.02,-0.016 -0.035,-0.021c-0.015,-0.005 -0.035,-0.009 -0.058,-0.012c-0.031,-0.005 -0.059,-0.011 -0.083,-0.018c-0.024,-0.008 -0.045,-0.017 -0.062,-0.029c-0.017,-0.012 -0.03,-0.027 -0.039,-0.045c-0.009,-0.018 -0.013,-0.04 -0.013,-0.066c0,-0.03 0.008,-0.057 0.025,-0.081c0.017,-0.024 0.041,-0.042 0.072,-0.056c0.031,-0.014 0.069,-0.02 0.113,-0.02c0.064,0 0.114,0.014 0.149,0.041c0.035,0.027 0.056,0.064 0.063,0.111l-0.127,0c-0.004,-0.015 -0.013,-0.027 -0.028,-0.035c-0.015,-0.008 -0.034,-0.012 -0.058,-0.012c-0.025,0 -0.045,0.004 -0.058,0.013c-0.013,0.009 -0.02,0.021 -0.02,0.037c0,0.01 0.003,0.02 0.009,0.028c0.006,0.008 0.016,0.016 0.032,0.022c0.015,0.006 0.036,0.011 0.063,0.015c0.048,0.007 0.086,0.016 0.116,0.027c0.03,0.011 0.052,0.026 0.066,0.047c0.014,0.021 0.021,0.049 0.02,0.086c0,0.036 -0.009,0.067 -0.027,0.092c-0.018,0.026 -0.043,0.045 -0.075,0.059c-0.032,0.014 -0.07,0.02 -0.114,0.02Z" style="fill:#f8f5f0;fill-rule:nonzero;"/></g></svg>
