<svg width="120" height="120" viewBox="0 0 120 120" xmlns="http://www.w3.org/2000/svg">
  <defs>
    <linearGradient id="m4-blue1" x1="0%" y1="0%" x2="100%" y2="100%">
      <stop offset="0%" style="stop-color:#6495ed"/>
      <stop offset="100%" style="stop-color:#5078c7"/>
    </linearGradient>
    <linearGradient id="m4-blue2" x1="0%" y1="0%" x2="100%" y2="100%">
      <stop offset="0%" style="stop-color:#5078c7"/>
      <stop offset="100%" style="stop-color:#4a5568"/>
    </linearGradient>
    <linearGradient id="m4-beige1" x1="0%" y1="0%" x2="100%" y2="100%">
      <stop offset="0%" style="stop-color:#f8f5f0"/>
      <stop offset="100%" style="stop-color:#e8e4dd"/>
    </linearGradient>
    <linearGradient id="m4-beige2" x1="0%" y1="0%" x2="100%" y2="100%">
      <stop offset="0%" style="stop-color:#e8e4dd"/>
      <stop offset="100%" style="stop-color:#d0ccc5"/>
    </linearGradient>
  </defs>

  <rect width="120" height="120" fill="#f8f5f0" rx="2"/>

  <g transform="translate(60, 60)">
    <!-- MEDIUM COMPLEXITY: Grid cells that break free and scatter -->

    <!-- Structured grid foundation (bottom layer) -->
    <g opacity="0.6">
      <rect x="-30" y="-30" width="12" height="12" fill="url(#m4-beige1)" stroke="#a0a09a" stroke-width="0.4" rx="1"/>
      <rect x="-16" y="-30" width="12" height="12" fill="url(#m4-beige2)" stroke="#a0a09a" stroke-width="0.4" rx="1"/>
      <rect x="-2" y="-30" width="12" height="12" fill="url(#m4-beige1)" stroke="#a0a09a" stroke-width="0.4" rx="1"/>
      <rect x="12" y="-30" width="12" height="12" fill="url(#m4-beige2)" stroke="#a0a09a" stroke-width="0.4" rx="1"/>

      <rect x="-30" y="-16" width="12" height="12" fill="url(#m4-beige2)" stroke="#a0a09a" stroke-width="0.4" rx="1"/>
      <rect x="-30" y="-2" width="12" height="12" fill="url(#m4-beige1)" stroke="#a0a09a" stroke-width="0.4" rx="1"/>
      <rect x="-30" y="12" width="12" height="12" fill="url(#m4-beige2)" stroke="#a0a09a" stroke-width="0.4" rx="1"/>

      <rect x="12" y="-16" width="12" height="12" fill="url(#m4-beige1)" stroke="#a0a09a" stroke-width="0.4" rx="1"/>
      <rect x="12" y="-2" width="12" height="12" fill="url(#m4-beige2)" stroke="#a0a09a" stroke-width="0.4" rx="1"/>
      <rect x="12" y="12" width="12" height="12" fill="url(#m4-beige1)" stroke="#a0a09a" stroke-width="0.4" rx="1"/>
    </g>

    <!-- Breaking free tiles - blue tiles that escaped the grid -->
    <g opacity="0.95">
      <!-- Rotated tiles -->
      <rect x="-25" y="-8" width="14" height="14" fill="url(#m4-blue1)" stroke="#404040" stroke-width="0.8" rx="1.5" transform="rotate(12 -18 -1)"/>
      <rect x="8" y="-25" width="16" height="16" fill="url(#m4-blue2)" stroke="#404040" stroke-width="0.8" rx="1.5" transform="rotate(-8 16 -17)"/>
      <rect x="-8" y="10" width="18" height="18" fill="url(#m4-blue1)" stroke="#404040" stroke-width="0.9" rx="1.5" transform="rotate(5 1 19)"/>
      <rect x="14" y="14" width="12" height="12" fill="url(#m4-blue2)" stroke="#404040" stroke-width="0.7" rx="1.5" transform="rotate(-15 20 20)"/>
    </g>

    <!-- Scattered organic beige tiles on top -->
    <g opacity="0.85">
      <rect x="-18" y="-32" width="11" height="11" fill="url(#m4-beige2)" stroke="#a0a09a" stroke-width="0.5" rx="1" transform="rotate(-5 -12.5 -26.5)"/>
      <rect x="20" y="-10" width="13" height="13" fill="url(#m4-beige1)" stroke="#a0a09a" stroke-width="0.5" rx="1" transform="rotate(8 26.5 -3.5)"/>
      <rect x="-28" y="18" width="10" height="10" fill="url(#m4-beige2)" stroke="#a0a09a" stroke-width="0.5" rx="1" transform="rotate(3 -23 23)"/>
      <rect x="6" y="24" width="12" height="12" fill="url(#m4-beige1)" stroke="#a0a09a" stroke-width="0.5" rx="1" transform="rotate(-6 12 30)"/>
    </g>

    <!-- Broken grid lines - some complete, some fragmented -->
    <g stroke="#4a5568" stroke-width="0.4" fill="none" opacity="0.5">
      <!-- Complete lines -->
      <line x1="-35" y1="-18" x2="35" y2="-18"/>
      <line x1="-18" y1="-35" x2="-18" y2="35"/>

      <!-- Broken/dashed lines -->
      <line x1="-35" y1="6" x2="-10" y2="6" stroke-dasharray="2,3"/>
      <line x1="0" y1="6" x2="35" y2="6" stroke-dasharray="2,3"/>

      <line x1="6" y1="-35" x2="6" y2="-5" stroke-dasharray="2,3"/>
      <line x1="6" y1="10" x2="6" y2="35" stroke-dasharray="2,3"/>
    </g>

    <!-- Center point with radiating indicators -->
    <g opacity="0.6">
      <circle cx="0" cy="0" r="2" fill="#404040"/>
      <circle cx="0" cy="0" r="8" fill="none" stroke="#6495ed" stroke-width="0.5"/>
      <line x1="-12" y1="0" x2="-9" y2="0" stroke="#6495ed" stroke-width="0.5"/>
      <line x1="9" y1="0" x2="12" y2="0" stroke="#6495ed" stroke-width="0.5"/>
      <line x1="0" y1="-12" x2="0" y2="-9" stroke="#6495ed" stroke-width="0.5"/>
      <line x1="0" y1="9" x2="0" y2="12" stroke="#6495ed" stroke-width="0.5"/>
    </g>
  </g>
</svg>
