<svg width="120" height="120" viewBox="0 0 120 120" xmlns="http://www.w3.org/2000/svg">
  <defs>
    <linearGradient id="m5-blue1" x1="0%" y1="0%" x2="100%" y2="100%">
      <stop offset="0%" style="stop-color:#6495ed"/>
      <stop offset="100%" style="stop-color:#5078c7"/>
    </linearGradient>
    <linearGradient id="m5-blue2" x1="0%" y1="0%" x2="100%" y2="100%">
      <stop offset="0%" style="stop-color:#5078c7"/>
      <stop offset="100%" style="stop-color:#4a5568"/>
    </linearGradient>
    <linearGradient id="m5-beige1" x1="0%" y1="0%" x2="100%" y2="100%">
      <stop offset="0%" style="stop-color:#f8f5f0"/>
      <stop offset="100%" style="stop-color:#e8e4dd"/>
    </linearGradient>
    <linearGradient id="m5-beige2" x1="0%" y1="0%" x2="100%" y2="100%">
      <stop offset="0%" style="stop-color:#e8e4dd"/>
      <stop offset="100%" style="stop-color:#d0ccc5"/>
    </linearGradient>
  </defs>

  <rect width="120" height="120" fill="#f8f5f0" rx="2"/>

  <g transform="translate(60, 60)">
    <!-- MEDIUM COMPLEXITY: Organic chaos with strong grid creating tension -->

    <!-- Organic tiles scattered freely (ignoring grid) -->
    <g opacity="0.9">
      <!-- Large organic placements -->
      <rect x="-38" y="-26" width="22" height="22" fill="url(#m5-blue1)" stroke="#404040" stroke-width="0.9" rx="2"/>
      <rect x="8" y="-38" width="26" height="26" fill="url(#m5-beige2)" stroke="#a0a09a" stroke-width="0.6" rx="1.5"/>
      <rect x="-32" y="14" width="20" height="20" fill="url(#m5-beige1)" stroke="#a0a09a" stroke-width="0.6" rx="1.5"/>
      <rect x="12" y="8" width="24" height="24" fill="url(#m5-blue2)" stroke="#404040" stroke-width="0.9" rx="2"/>

      <!-- Medium tiles filling gaps -->
      <rect x="-8" y="-32" width="14" height="14" fill="url(#m5-beige2)" stroke="#a0a09a" stroke-width="0.5" rx="1"/>
      <rect x="-16" y="-8" width="16" height="16" fill="url(#m5-beige1)" stroke="#a0a09a" stroke-width="0.5" rx="1"/>
      <rect x="4" y="-12" width="12" height="12" fill="url(#m5-blue1)" stroke="#404040" stroke-width="0.7" rx="1"/>

      <!-- Small accent tiles -->
      <rect x="-28" y="2" width="9" height="9" fill="url(#m5-blue2)" stroke="#404040" stroke-width="0.6" rx="0.8"/>
      <rect x="-4" y="12" width="10" height="10" fill="url(#m5-beige2)" stroke="#a0a09a" stroke-width="0.4" rx="0.8"/>
    </g>

    <!-- STRONG grid overlay on top (creating conflict/tension) -->
    <g stroke="#4a5568" stroke-width="0.6" fill="none" opacity="0.65">
      <!-- Dense horizontal lines -->
      <line x1="-42" y1="-28" x2="42" y2="-28"/>
      <line x1="-42" y1="-14" x2="42" y2="-14"/>
      <line x1="-42" y1="0" x2="42" y2="0"/>
      <line x1="-42" y1="14" x2="42" y2="14"/>
      <line x1="-42" y1="28" x2="42" y2="28"/>

      <!-- Dense vertical lines -->
      <line x1="-28" y1="-42" x2="-28" y2="42"/>
      <line x1="-14" y1="-42" x2="-14" y2="42"/>
      <line x1="0" y1="-42" x2="0" y2="42"/>
      <line x1="14" y1="-42" x2="14" y2="42"/>
      <line x1="28" y1="-42" x2="28" y2="42"/>
    </g>

    <!-- Grid intersection markers (emphasizing the grid) -->
    <g fill="#4a5568" opacity="0.6">
      <circle cx="-28" cy="-28" r="1.2"/>
      <circle cx="-14" cy="-28" r="1.2"/>
      <circle cx="0" cy="-28" r="1.2"/>
      <circle cx="14" cy="-28" r="1.2"/>
      <circle cx="28" cy="-28" r="1.2"/>

      <circle cx="-28" cy="0" r="1.2"/>
      <circle cx="-14" cy="0" r="1.2"/>
      <circle cx="0" cy="0" r="2" fill="#404040"/>
      <circle cx="14" cy="0" r="1.2"/>
      <circle cx="28" cy="0" r="1.2"/>

      <circle cx="-28" cy="28" r="1.2"/>
      <circle cx="-14" cy="28" r="1.2"/>
      <circle cx="0" cy="28" r="1.2"/>
      <circle cx="14" cy="28" r="1.2"/>
      <circle cx="28" cy="28" r="1.2"/>
    </g>

    <!-- Coordinate labels (strengthening grid presence) -->
    <g fill="#4a5568" opacity="0.5" font-family="Space Mono, monospace" font-size="5" font-weight="700">
      <text x="-44" y="-26" text-anchor="start">A</text>
      <text x="-44" y="0" text-anchor="start">B</text>
      <text x="-44" y="30" text-anchor="start">C</text>

      <text x="-26" y="-40" text-anchor="middle">1</text>
      <text x="0" y="-40" text-anchor="middle">2</text>
      <text x="28" y="-40" text-anchor="middle">3</text>
    </g>
  </g>
</svg>
