<svg width="120" height="120" viewBox="0 0 120 120" xmlns="http://www.w3.org/2000/svg">
  <defs>
    <linearGradient id="m6-blue1" x1="0%" y1="0%" x2="100%" y2="100%">
      <stop offset="0%" style="stop-color:#6495ed"/>
      <stop offset="100%" style="stop-color:#5078c7"/>
    </linearGradient>
    <linearGradient id="m6-blue2" x1="0%" y1="0%" x2="100%" y2="100%">
      <stop offset="0%" style="stop-color:#5078c7"/>
      <stop offset="100%" style="stop-color:#4a5568"/>
    </linearGradient>
    <linearGradient id="m6-beige1" x1="0%" y1="0%" x2="100%" y2="100%">
      <stop offset="0%" style="stop-color:#f8f5f0"/>
      <stop offset="100%" style="stop-color:#e8e4dd"/>
    </linearGradient>
    <linearGradient id="m6-beige2" x1="0%" y1="0%" x2="100%" y2="100%">
      <stop offset="0%" style="stop-color:#e8e4dd"/>
      <stop offset="100%" style="stop-color:#d0ccc5"/>
    </linearGradient>
  </defs>

  <rect width="120" height="120" fill="#f8f5f0" rx="2"/>

  <g transform="translate(60, 60)">
    <!-- MEDIUM COMPLEXITY: Mixed grid cell sizes - controlled chaos -->

    <!-- Large cells (20x20) - sparse placement -->
    <g opacity="0.9">
      <rect x="-40" y="-40" width="20" height="20" fill="url(#m6-blue1)" stroke="#404040" stroke-width="0.9" rx="1.5"/>
      <rect x="20" y="20" width="20" height="20" fill="url(#m6-blue2)" stroke="#404040" stroke-width="0.9" rx="1.5"/>
    </g>

    <!-- Medium cells (15x15) - filling some gaps -->
    <g opacity="0.85">
      <rect x="-18" y="-40" width="15" height="15" fill="url(#m6-beige2)" stroke="#a0a09a" stroke-width="0.6" rx="1"/>
      <rect x="3" y="-40" width="15" height="15" fill="url(#m6-beige1)" stroke="#a0a09a" stroke-width="0.6" rx="1"/>

      <rect x="-40" y="-18" width="15" height="15" fill="url(#m6-beige1)" stroke="#a0a09a" stroke-width="0.6" rx="1"/>
      <rect x="-40" y="3" width="15" height="15" fill="url(#m6-beige2)" stroke="#a0a09a" stroke-width="0.6" rx="1"/>

      <rect x="25" y="-15" width="15" height="15" fill="url(#m6-blue2)" stroke="#404040" stroke-width="0.7" rx="1"/>
      <rect x="25" y="3" width="15" height="15" fill="url(#m6-beige1)" stroke="#a0a09a" stroke-width="0.6" rx="1"/>

      <rect x="-15" y="25" width="15" height="15" fill="url(#m6-beige2)" stroke="#a0a09a" stroke-width="0.6" rx="1"/>
      <rect x="3" y="25" width="15" height="15" fill="url(#m6-beige1)" stroke="#a0a09a" stroke-width="0.6" rx="1"/>
    </g>

    <!-- Small cells (10x10) - dense in center -->
    <g opacity="0.8">
      <rect x="-18" y="-23" width="10" height="10" fill="url(#m6-blue1)" stroke="#404040" stroke-width="0.6" rx="0.8"/>
      <rect x="-6" y="-23" width="10" height="10" fill="url(#m6-beige2)" stroke="#a0a09a" stroke-width="0.5" rx="0.8"/>
      <rect x="6" y="-23" width="10" height="10" fill="url(#m6-beige1)" stroke="#a0a09a" stroke-width="0.5" rx="0.8"/>

      <rect x="-23" y="-6" width="10" height="10" fill="url(#m6-beige1)" stroke="#a0a09a" stroke-width="0.5" rx="0.8"/>
      <rect x="-11" y="-6" width="10" height="10" fill="url(#m6-beige2)" stroke="#a0a09a" stroke-width="0.5" rx="0.8"/>
      <rect x="1" y="-6" width="10" height="10" fill="url(#m6-blue2)" stroke="#404040" stroke-width="0.6" rx="0.8"/>
      <rect x="13" y="-6" width="10" height="10" fill="url(#m6-beige1)" stroke="#a0a09a" stroke-width="0.5" rx="0.8"/>

      <rect x="-23" y="6" width="10" height="10" fill="url(#m6-beige2)" stroke="#a0a09a" stroke-width="0.5" rx="0.8"/>
      <rect x="-11" y="6" width="10" height="10" fill="url(#m6-blue1)" stroke="#404040" stroke-width="0.6" rx="0.8"/>
      <rect x="1" y="6" width="10" height="10" fill="url(#m6-beige1)" stroke="#a0a09a" stroke-width="0.5" rx="0.8"/>
      <rect x="13" y="6" width="10" height="10" fill="url(#m6-beige2)" stroke="#a0a09a" stroke-width="0.5" rx="0.8"/>

      <rect x="-6" y="18" width="10" height="10" fill="url(#m6-beige1)" stroke="#a0a09a" stroke-width="0.5" rx="0.8"/>
    </g>

    <!-- Tiny cells (6x6) - scattered accents -->
    <g opacity="0.75">
      <rect x="-2" y="-40" width="6" height="6" fill="url(#m6-blue2)" stroke="#404040" stroke-width="0.5" rx="0.5"/>
      <rect x="-40" y="-2" width="6" height="6" fill="url(#m6-blue1)" stroke="#404040" stroke-width="0.5" rx="0.5"/>
      <rect x="18" y="-23" width="6" height="6" fill="url(#m6-beige2)" stroke="#a0a09a" stroke-width="0.4" rx="0.5"/>
      <rect x="-23" y="18" width="6" height="6" fill="url(#m6-beige1)" stroke="#a0a09a" stroke-width="0.4" rx="0.5"/>
    </g>

    <!-- Variable grid overlay - different cell sizes visible -->
    <g stroke="#4a5568" stroke-width="0.5" fill="none" opacity="0.5">
      <!-- Large grid (20px) -->
      <line x1="-40" y1="-20" x2="40" y2="-20"/>
      <line x1="-40" y1="0" x2="40" y2="0"/>
      <line x1="-40" y1="20" x2="40" y2="20"/>
      <line x1="-20" y1="-40" x2="-20" y2="40"/>
      <line x1="0" y1="-40" x2="0" y2="40"/>
      <line x1="20" y1="-40" x2="20" y2="40"/>

      <!-- Medium grid (10px) in center only -->
      <g opacity="0.6">
        <line x1="-25" y1="-10" x2="25" y2="-10"/>
        <line x1="-25" y1="10" x2="25" y2="10"/>
        <line x1="-10" y1="-25" x2="-10" y2="25"/>
        <line x1="10" y1="-25" x2="10" y2="25"/>
      </g>
    </g>

    <!-- Key grid intersections -->
    <g fill="#6495ed" opacity="0.6">
      <circle cx="-20" cy="-20" r="1.5"/>
      <circle cx="20" cy="-20" r="1.5"/>
      <circle cx="-20" cy="20" r="1.5"/>
      <circle cx="20" cy="20" r="1.5"/>
      <circle cx="0" cy="0" r="2.5" fill="#404040"/>
    </g>
  </g>
</svg>
