<svg width="120" height="120" viewBox="0 0 120 120" xmlns="http://www.w3.org/2000/svg">
  <defs>
    <!-- Blue shades for temporal layers -->
    <linearGradient id="gb2-blue1" x1="0%" y1="0%" x2="100%" y2="100%">
      <stop offset="0%" style="stop-color:#6495ed"/>
      <stop offset="100%" style="stop-color:#5a7bc7"/>
    </linearGradient>
    <linearGradient id="gb2-blue2" x1="0%" y1="0%" x2="100%" y2="100%">
      <stop offset="0%" style="stop-color:#4a5568"/>
      <stop offset="100%" style="stop-color:#3d4756"/>
    </linearGradient>
    <linearGradient id="gb2-blue3" x1="0%" y1="0%" x2="100%" y2="100%">
      <stop offset="0%" style="stop-color:#5a7bc7"/>
      <stop offset="100%" style="stop-color:#4a5568"/>
    </linearGradient>
    <!-- Gray/beige tones -->
    <linearGradient id="gb2-gray1" x1="0%" y1="0%" x2="100%" y2="100%">
      <stop offset="0%" style="stop-color:#d8d4cd"/>
      <stop offset="100%" style="stop-color:#c8c4bd"/>
    </linearGradient>
    <linearGradient id="gb2-gray2" x1="0%" y1="0%" x2="100%" y2="100%">
      <stop offset="0%" style="stop-color:#b8b4ad"/>
      <stop offset="100%" style="stop-color:#a8a4a0"/>
    </linearGradient>
  </defs>

  <!-- Subtle gradient background -->
  <rect width="120" height="120" fill="#f8f5f0" rx="2"/>

  <g transform="translate(60, 60)">
    <!-- Layered temporal tiles - suggesting time slices stacked -->

    <!-- Bottom layer (oldest/background) - gray tones -->
    <g opacity="0.5" transform="translate(3, 3)">
      <rect x="-40" y="-40" width="80" height="16" fill="url(#gb2-gray1)" stroke="#a8a4a0" stroke-width="0.5" rx="2"/>
      <rect x="-40" y="-22" width="37" height="18" fill="url(#gb2-gray2)" stroke="#a8a4a0" stroke-width="0.5" rx="2"/>
      <rect x="-1" y="-22" width="41" height="18" fill="url(#gb2-gray1)" stroke="#a8a4a0" stroke-width="0.5" rx="2"/>
    </g>

    <!-- Middle layer - beige tones -->
    <g opacity="0.65" transform="translate(1.5, 1.5)">
      <rect x="-40" y="-2" width="25" height="20" fill="#e8e4dd" stroke="#c8c4bd" stroke-width="0.5" rx="2"/>
      <rect x="-13" y="-2" width="28" height="20" fill="#d8d4cd" stroke="#c8c4bd" stroke-width="0.5" rx="2"/>
      <rect x="17" y="-2" width="23" height="20" fill="#e8e4dd" stroke="#c8c4bd" stroke-width="0.5" rx="2"/>
    </g>

    <!-- Top layer (recent/foreground) - blue tones -->
    <g opacity="0.95">
      <rect x="-40" y="20" width="22" height="20" fill="url(#gb2-blue2)" stroke="#404040" stroke-width="0.7" rx="2"/>
      <rect x="-16" y="20" width="30" height="20" fill="url(#gb2-blue1)" stroke="#404040" stroke-width="0.7" rx="2"/>
      <rect x="16" y="20" width="24" height="20" fill="url(#gb2-blue3)" stroke="#404040" stroke-width="0.7" rx="2"/>
    </g>

    <!-- Prominent grid overlay - strong lines -->
    <g stroke="#4a5568" stroke-width="0.5" fill="none" opacity="0.5">
      <!-- Horizontal major lines -->
      <line x1="-45" y1="-24" x2="45" y2="-24"/>
      <line x1="-45" y1="-4" x2="45" y2="-4"/>
      <line x1="-45" y1="18" x2="45" y2="18"/>

      <!-- Vertical major lines -->
      <line x1="-40" y1="-45" x2="-40" y2="45"/>
      <line x1="-15" y1="-45" x2="-15" y2="45"/>
      <line x1="15" y1="-45" x2="15" y2="45"/>
      <line x1="40" y1="-45" x2="40" y2="45"/>

      <!-- Subtle minor grid -->
      <g stroke-width="0.25" opacity="0.6" stroke-dasharray="1,2">
        <line x1="-45" y1="-40" x2="45" y2="-40"/>
        <line x1="-45" y1="0" x2="45" y2="0"/>
        <line x1="-45" y1="40" x2="45" y2="40"/>
        <line x1="0" y1="-45" x2="0" y2="45"/>
      </g>
    </g>

    <!-- Grid intersection nodes - blue accents -->
    <g fill="#6495ed">
      <circle cx="-40" cy="-24" r="1.5" opacity="0.7"/>
      <circle cx="-15" cy="-24" r="1.5" opacity="0.7"/>
      <circle cx="15" cy="-24" r="1.5" opacity="0.7"/>
      <circle cx="40" cy="-24" r="1.5" opacity="0.7"/>

      <circle cx="-40" cy="18" r="1.5" opacity="0.7"/>
      <circle cx="-15" cy="18" r="1.5" opacity="0.7"/>
      <circle cx="15" cy="18" r="1.5" opacity="0.7"/>
      <circle cx="40" cy="18" r="1.5" opacity="0.7"/>
    </g>

    <!-- Central focus marker -->
    <g transform="translate(0, -4)">
      <circle cx="0" cy="0" r="3" fill="none" stroke="#6495ed" stroke-width="0.8" opacity="0.8"/>
      <circle cx="0" cy="0" r="1.5" fill="#404040" opacity="0.9"/>
    </g>

    <!-- Coordinate labels suggestion (tiny decorative elements) -->
    <g opacity="0.3" fill="#404040" font-family="monospace" font-size="4">
      <text x="-42" y="-42" text-anchor="start">T</text>
      <text x="38" y="42" text-anchor="end">0</text>
    </g>
  </g>
</svg>
