<svg width="120" height="120" viewBox="0 0 120 120" xmlns="http://www.w3.org/2000/svg">
  <!-- Parchment background -->
  <rect width="120" height="120" fill="#f8f5f0"/>

  <g transform="translate(60, 60)">
    <!-- Fractal-like pattern -->
    <!-- Center large -->
    <rect x="-16" y="-16" width="32" height="32" fill="#6495ed" rx="2"/>

    <!-- Corner mediums -->
    <rect x="-40" y="-40" width="20" height="20" fill="#4a5568" rx="1"/>
    <rect x="20" y="-40" width="20" height="20" fill="#4a5568" rx="1"/>
    <rect x="-40" y="20" width="20" height="20" fill="#4a5568" rx="1"/>
    <rect x="20" y="20" width="20" height="20" fill="#4a5568" rx="1"/>

    <!-- Mini tiles at edges -->
    <rect x="-10" y="-44" width="8" height="8" fill="#4a5568" rx="0.5"/>
    <rect x="2" y="-44" width="8" height="8" fill="#4a5568" rx="0.5"/>
    <rect x="36" y="-10" width="8" height="8" fill="#4a5568" rx="0.5"/>
    <rect x="36" y="2" width="8" height="8" fill="#4a5568" rx="0.5"/>
    <rect x="-10" y="36" width="8" height="8" fill="#4a5568" rx="0.5"/>
    <rect x="2" y="36" width="8" height="8" fill="#4a5568" rx="0.5"/>
    <rect x="-44" y="-10" width="8" height="8" fill="#4a5568" rx="0.5"/>
    <rect x="-44" y="2" width="8" height="8" fill="#4a5568" rx="0.5"/>
  </g>
</svg>
