<svg width="120" height="120" viewBox="0 0 120 120" xmlns="http://www.w3.org/2000/svg">
  <defs>
    <linearGradient id="carto2-terra" x1="0%" y1="0%" x2="100%" y2="100%">
      <stop offset="0%" style="stop-color:#cd853f"/>
      <stop offset="100%" style="stop-color:#b8722e"/>
    </linearGradient>
    <linearGradient id="carto2-forest" x1="0%" y1="0%" x2="100%" y2="100%">
      <stop offset="0%" style="stop-color:#5f9e6e"/>
      <stop offset="100%" style="stop-color:#4a7a57"/>
    </linearGradient>
  </defs>

  <!-- Parchment background -->
  <rect width="120" height="120" fill="#f8f5f0"/>

  <g transform="translate(60, 60)">
    <!-- Coordinate grid (subtle) -->
    <g stroke="#4a5568" stroke-width="0.5" opacity="0.15">
      <line x1="-40" y1="-20" x2="40" y2="-20"/>
      <line x1="-40" y1="0" x2="40" y2="0"/>
      <line x1="-40" y1="20" x2="40" y2="20"/>
      <line x1="-20" y1="-40" x2="-20" y2="40"/>
      <line x1="0" y1="-40" x2="0" y2="40"/>
      <line x1="20" y1="-40" x2="20" y2="40"/>
    </g>

    <!-- Map-inspired quadrant tiles -->
    <g opacity="0.9">
      <rect x="-38" y="-38" width="34" height="16" fill="#4a5568" opacity="0.6" rx="1" stroke="#404040" stroke-width="0.5"/>
      <rect x="4" y="-38" width="34" height="16" fill="url(#carto2-terra)" opacity="0.7" rx="1" stroke="#404040" stroke-width="0.5"/>
      <rect x="-38" y="-18" width="34" height="16" fill="url(#carto2-forest)" opacity="0.65" rx="1" stroke="#404040" stroke-width="0.5"/>
      <rect x="4" y="-18" width="34" height="16" fill="#6495ed" opacity="0.75" rx="1" stroke="#404040" stroke-width="0.5"/>
      <rect x="-38" y="6" width="34" height="16" fill="url(#carto2-terra)" opacity="0.8" rx="1" stroke="#404040" stroke-width="0.5"/>
      <rect x="4" y="6" width="34" height="16" fill="#4a5568" opacity="0.7" rx="1" stroke="#404040" stroke-width="0.5"/>
      <rect x="-38" y="26" width="34" height="16" fill="#6495ed" opacity="0.85" rx="1" stroke="#404040" stroke-width="0.5"/>
      <rect x="4" y="26" width="34" height="16" fill="url(#carto2-forest)" opacity="0.75" rx="1" stroke="#404040" stroke-width="0.5"/>
    </g>
  </g>
</svg>
