<svg width="120" height="120" viewBox="0 0 120 120" xmlns="http://www.w3.org/2000/svg">
  <!-- Parchment background -->
  <rect width="120" height="120" fill="#f8f5f0"/>

  <g transform="translate(60, 60)">
    <!-- Technical grid with precise measurements -->
    <g stroke="#4a5568" stroke-width="0.6" opacity="0.25">
      <rect x="-42" y="-42" width="84" height="84" fill="none" rx="1"/>
      <line x1="-42" y1="-21" x2="42" y2="-21"/>
      <line x1="-42" y1="0" x2="42" y2="0"/>
      <line x1="-42" y1="21" x2="42" y2="21"/>
      <line x1="-21" y1="-42" x2="-21" y2="42"/>
      <line x1="0" y1="-42" x2="0" y2="42"/>
      <line x1="21" y1="-42" x2="21" y2="42"/>
    </g>

    <!-- Minimal tile arrangement -->
    <g opacity="0.95">
      <!-- Navy tiles -->
      <rect x="-39" y="-39" width="16" height="16" fill="#4a5568" rx="1"/>
      <rect x="-18" y="-18" width="16" height="16" fill="#4a5568" opacity="0.8" rx="1"/>

      <!-- Blue accent tiles -->
      <rect x="3" y="-39" width="16" height="16" fill="#6495ed" opacity="0.7" rx="1"/>
      <rect x="24" y="-18" width="16" height="16" fill="#6495ed" opacity="0.85" rx="1"/>

      <!-- Terracotta accents -->
      <rect x="-39" y="3" width="16" height="16" fill="#cd853f" opacity="0.65" rx="1"/>
      <rect x="3" y="24" width="16" height="16" fill="#cd853f" opacity="0.75" rx="1"/>

      <!-- Forest accents -->
      <rect x="-18" y="24" width="16" height="16" fill="#5f9e6e" opacity="0.7" rx="1"/>
      <rect x="24" y="3" width="16" height="16" fill="#5f9e6e" opacity="0.8" rx="1"/>

      <!-- Central focus -->
      <rect x="-5" y="-5" width="12" height="12" fill="#404040" rx="1"/>
    </g>

    <!-- Corner registration marks (cartographic detail) -->
    <g fill="#404040" opacity="0.4">
      <circle cx="-42" cy="-42" r="1.5"/>
      <circle cx="42" cy="-42" r="1.5"/>
      <circle cx="-42" cy="42" r="1.5"/>
      <circle cx="42" cy="42" r="1.5"/>
    </g>
  </g>
</svg>
