<svg width="120" height="120" viewBox="0 0 120 120" xmlns="http://www.w3.org/2000/svg">
  <!-- Parchment background -->
  <rect width="120" height="120" fill="#f8f5f0"/>

  <g transform="translate(60, 60)">
    <!-- Dense cascade (more pixels) -->

    <!-- Row 1 -->
    <rect x="-8" y="-44" width="6" height="6" fill="#6495ed" rx="0.5"/>
    <rect x="-2" y="-44" width="6" height="6" fill="#6495ed" rx="0.5"/>
    <rect x="4" y="-44" width="6" height="6" fill="#6495ed" rx="0.5"/>

    <!-- Row 2 -->
    <rect x="-14" y="-36" width="6" height="6" fill="#4a5568" rx="0.5"/>
    <rect x="-8" y="-36" width="6" height="6" fill="#4a5568" rx="0.5"/>
    <rect x="-2" y="-36" width="6" height="6" fill="#4a5568" rx="0.5"/>
    <rect x="4" y="-36" width="6" height="6" fill="#4a5568" rx="0.5"/>
    <rect x="10" y="-36" width="6" height="6" fill="#4a5568" rx="0.5"/>

    <!-- Row 3 -->
    <rect x="-20" y="-28" width="6" height="6" fill="#4a5568" rx="0.5"/>
    <rect x="-14" y="-28" width="6" height="6" fill="#4a5568" rx="0.5"/>
    <rect x="-8" y="-28" width="6" height="6" fill="#4a5568" rx="0.5"/>
    <rect x="-2" y="-28" width="6" height="6" fill="#4a5568" rx="0.5"/>
    <rect x="4" y="-28" width="6" height="6" fill="#4a5568" rx="0.5"/>
    <rect x="10" y="-28" width="6" height="6" fill="#4a5568" rx="0.5"/>
    <rect x="16" y="-28" width="6" height="6" fill="#4a5568" rx="0.5"/>

    <!-- Row 4 -->
    <rect x="-26" y="-20" width="6" height="6" fill="#4a5568" rx="0.5"/>
    <rect x="-20" y="-20" width="6" height="6" fill="#4a5568" rx="0.5"/>
    <rect x="-14" y="-20" width="6" height="6" fill="#4a5568" rx="0.5"/>
    <rect x="-8" y="-20" width="6" height="6" fill="#4a5568" rx="0.5"/>
    <rect x="-2" y="-20" width="6" height="6" fill="#4a5568" rx="0.5"/>
    <rect x="4" y="-20" width="6" height="6" fill="#4a5568" rx="0.5"/>
    <rect x="10" y="-20" width="6" height="6" fill="#4a5568" rx="0.5"/>
    <rect x="16" y="-20" width="6" height="6" fill="#4a5568" rx="0.5"/>
    <rect x="22" y="-20" width="6" height="6" fill="#4a5568" rx="0.5"/>

    <!-- Row 5 (center accent) -->
    <rect x="-32" y="-12" width="6" height="6" fill="#4a5568" rx="0.5"/>
    <rect x="-26" y="-12" width="6" height="6" fill="#4a5568" rx="0.5"/>
    <rect x="-20" y="-12" width="6" height="6" fill="#4a5568" rx="0.5"/>
    <rect x="-14" y="-12" width="6" height="6" fill="#4a5568" rx="0.5"/>
    <rect x="-8" y="-12" width="6" height="6" fill="#4a5568" rx="0.5"/>
    <rect x="-2" y="-12" width="6" height="6" fill="#6495ed" rx="0.5"/>
    <rect x="4" y="-12" width="6" height="6" fill="#4a5568" rx="0.5"/>
    <rect x="10" y="-12" width="6" height="6" fill="#4a5568" rx="0.5"/>
    <rect x="16" y="-12" width="6" height="6" fill="#4a5568" rx="0.5"/>
    <rect x="22" y="-12" width="6" height="6" fill="#4a5568" rx="0.5"/>
    <rect x="28" y="-12" width="6" height="6" fill="#4a5568" rx="0.5"/>

    <!-- Continue pattern (mirrored) -->
    <rect x="-26" y="-4" width="6" height="6" fill="#4a5568" rx="0.5"/>
    <rect x="-20" y="-4" width="6" height="6" fill="#4a5568" rx="0.5"/>
    <rect x="-14" y="-4" width="6" height="6" fill="#4a5568" rx="0.5"/>
    <rect x="-8" y="-4" width="6" height="6" fill="#4a5568" rx="0.5"/>
    <rect x="-2" y="-4" width="6" height="6" fill="#4a5568" rx="0.5"/>
    <rect x="4" y="-4" width="6" height="6" fill="#4a5568" rx="0.5"/>
    <rect x="10" y="-4" width="6" height="6" fill="#4a5568" rx="0.5"/>
    <rect x="16" y="-4" width="6" height="6" fill="#4a5568" rx="0.5"/>
    <rect x="22" y="-4" width="6" height="6" fill="#4a5568" rx="0.5"/>

    <rect x="-20" y="4" width="6" height="6" fill="#4a5568" rx="0.5"/>
    <rect x="-14" y="4" width="6" height="6" fill="#4a5568" rx="0.5"/>
    <rect x="-8" y="4" width="6" height="6" fill="#4a5568" rx="0.5"/>
    <rect x="-2" y="4" width="6" height="6" fill="#4a5568" rx="0.5"/>
    <rect x="4" y="4" width="6" height="6" fill="#4a5568" rx="0.5"/>
    <rect x="10" y="4" width="6" height="6" fill="#4a5568" rx="0.5"/>
    <rect x="16" y="4" width="6" height="6" fill="#4a5568" rx="0.5"/>

    <rect x="-14" y="12" width="6" height="6" fill="#4a5568" rx="0.5"/>
    <rect x="-8" y="12" width="6" height="6" fill="#4a5568" rx="0.5"/>
    <rect x="-2" y="12" width="6" height="6" fill="#4a5568" rx="0.5"/>
    <rect x="4" y="12" width="6" height="6" fill="#4a5568" rx="0.5"/>
    <rect x="10" y="12" width="6" height="6" fill="#4a5568" rx="0.5"/>

    <rect x="-8" y="20" width="6" height="6" fill="#4a5568" rx="0.5"/>
    <rect x="-2" y="20" width="6" height="6" fill="#4a5568" rx="0.5"/>
    <rect x="4" y="20" width="6" height="6" fill="#4a5568" rx="0.5"/>

    <rect x="-2" y="28" width="6" height="6" fill="#6495ed" rx="0.5"/>
  </g>
</svg>
