<svg width="120" height="120" viewBox="0 0 120 120" xmlns="http://www.w3.org/2000/svg">
  <!-- Parchment background -->
  <rect width="120" height="120" fill="#f8f5f0"/>

  <g transform="translate(60, 60)">
    <!-- Two parallel cascading streams -->

    <!-- Left stream -->
    <rect x="-26" y="-40" width="8" height="8" fill="#6495ed" rx="1"/>
    <rect x="-30" y="-30" width="8" height="8" fill="#4a5568" rx="1"/>
    <rect x="-22" y="-30" width="8" height="8" fill="#4a5568" rx="1"/>
    <rect x="-34" y="-20" width="8" height="8" fill="#4a5568" rx="1"/>
    <rect x="-26" y="-20" width="8" height="8" fill="#4a5568" rx="1"/>
    <rect x="-18" y="-20" width="8" height="8" fill="#4a5568" rx="1"/>
    <rect x="-38" y="-10" width="8" height="8" fill="#4a5568" rx="1"/>
    <rect x="-30" y="-10" width="8" height="8" fill="#4a5568" rx="1"/>
    <rect x="-22" y="-10" width="8" height="8" fill="#4a5568" rx="1"/>
    <rect x="-14" y="-10" width="8" height="8" fill="#4a5568" rx="1"/>

    <!-- Right stream -->
    <rect x="18" y="-40" width="8" height="8" fill="#6495ed" rx="1"/>
    <rect x="14" y="-30" width="8" height="8" fill="#4a5568" rx="1"/>
    <rect x="22" y="-30" width="8" height="8" fill="#4a5568" rx="1"/>
    <rect x="10" y="-20" width="8" height="8" fill="#4a5568" rx="1"/>
    <rect x="18" y="-20" width="8" height="8" fill="#4a5568" rx="1"/>
    <rect x="26" y="-20" width="8" height="8" fill="#4a5568" rx="1"/>
    <rect x="6" y="-10" width="8" height="8" fill="#4a5568" rx="1"/>
    <rect x="14" y="-10" width="8" height="8" fill="#4a5568" rx="1"/>
    <rect x="22" y="-10" width="8" height="8" fill="#4a5568" rx="1"/>
    <rect x="30" y="-10" width="8" height="8" fill="#4a5568" rx="1"/>

    <!-- Merge point -->
    <rect x="-18" y="0" width="8" height="8" fill="#4a5568" rx="1"/>
    <rect x="-10" y="0" width="8" height="8" fill="#4a5568" rx="1"/>
    <rect x="-2" y="0" width="8" height="8" fill="#6495ed" rx="1"/>
    <rect x="6" y="0" width="8" height="8" fill="#4a5568" rx="1"/>

    <!-- Continue down -->
    <rect x="-10" y="10" width="8" height="8" fill="#4a5568" rx="1"/>
    <rect x="-2" y="10" width="8" height="8" fill="#4a5568" rx="1"/>
    <rect x="-6" y="20" width="8" height="8" fill="#4a5568" rx="1"/>
    <rect x="-2" y="30" width="8" height="8" fill="#4a5568" rx="1"/>
  </g>
</svg>
