<svg width="120" height="120" viewBox="0 0 120 120" xmlns="http://www.w3.org/2000/svg">
  <!-- Parchment background -->
  <rect width="120" height="120" fill="#f8f5f0"/>

  <g transform="translate(60, 60)">
    <!-- Extended double diamond - taller -->

    <!-- Top diamond -->
    <rect x="-4" y="-40" width="8" height="8" fill="#6495ed" rx="1"/>
    <rect x="-12" y="-32" width="8" height="8" fill="#4a5568" rx="1"/>
    <rect x="4" y="-32" width="8" height="8" fill="#4a5568" rx="1"/>
    <rect x="-20" y="-24" width="8" height="8" fill="#4a5568" rx="1"/>
    <rect x="-4" y="-24" width="8" height="8" fill="#4a5568" rx="1"/>
    <rect x="12" y="-24" width="8" height="8" fill="#4a5568" rx="1"/>
    <rect x="-28" y="-16" width="8" height="8" fill="#4a5568" rx="1"/>
    <rect x="-12" y="-16" width="8" height="8" fill="#4a5568" rx="1"/>
    <rect x="4" y="-16" width="8" height="8" fill="#4a5568" rx="1"/>
    <rect x="20" y="-16" width="8" height="8" fill="#4a5568" rx="1"/>
    <rect x="-20" y="-8" width="8" height="8" fill="#4a5568" rx="1"/>
    <rect x="-4" y="-8" width="8" height="8" fill="#4a5568" rx="1"/>
    <rect x="12" y="-8" width="8" height="8" fill="#4a5568" rx="1"/>
    <rect x="-12" y="0" width="8" height="8" fill="#4a5568" rx="1"/>
    <rect x="4" y="0" width="8" height="8" fill="#4a5568" rx="1"/>

    <!-- Center -->
    <rect x="-4" y="8" width="8" height="8" fill="#6495ed" rx="1"/>

    <!-- Bottom diamond (mirror) -->
    <rect x="-12" y="16" width="8" height="8" fill="#4a5568" rx="1"/>
    <rect x="4" y="16" width="8" height="8" fill="#4a5568" rx="1"/>
    <rect x="-20" y="24" width="8" height="8" fill="#4a5568" rx="1"/>
    <rect x="-4" y="24" width="8" height="8" fill="#4a5568" rx="1"/>
    <rect x="12" y="24" width="8" height="8" fill="#4a5568" rx="1"/>
    <rect x="-28" y="32" width="8" height="8" fill="#4a5568" rx="1"/>
    <rect x="-12" y="32" width="8" height="8" fill="#4a5568" rx="1"/>
    <rect x="4" y="32" width="8" height="8" fill="#4a5568" rx="1"/>
    <rect x="20" y="32" width="8" height="8" fill="#4a5568" rx="1"/>
    <rect x="-20" y="40" width="8" height="8" fill="#4a5568" rx="1"/>
    <rect x="-4" y="40" width="8" height="8" fill="#4a5568" rx="1"/>
    <rect x="12" y="40" width="8" height="8" fill="#4a5568" rx="1"/>
    <rect x="-12" y="48" width="8" height="8" fill="#4a5568" rx="1"/>
    <rect x="4" y="48" width="8" height="8" fill="#4a5568" rx="1"/>
    <rect x="-4" y="56" width="8" height="8" fill="#6495ed" rx="1"/>
  </g>
</svg>
