<svg width="120" height="120" viewBox="0 0 120 120" xmlns="http://www.w3.org/2000/svg">
  <!-- Parchment background -->
  <rect width="120" height="120" fill="#f8f5f0"/>

  <g transform="translate(60, 60)">
    <!-- Two diamond shapes stacked vertically -->

    <!-- Top diamond -->
    <rect x="-4" y="-40" width="8" height="8" fill="#6495ed" rx="1"/>
    <rect x="-12" y="-30" width="8" height="8" fill="#4a5568" rx="1"/>
    <rect x="4" y="-30" width="8" height="8" fill="#4a5568" rx="1"/>
    <rect x="-20" y="-20" width="8" height="8" fill="#4a5568" rx="1"/>
    <rect x="-4" y="-20" width="8" height="8" fill="#4a5568" rx="1"/>
    <rect x="12" y="-20" width="8" height="8" fill="#4a5568" rx="1"/>
    <rect x="-12" y="-10" width="8" height="8" fill="#4a5568" rx="1"/>
    <rect x="4" y="-10" width="8" height="8" fill="#4a5568" rx="1"/>

    <!-- Center point -->
    <rect x="-4" y="0" width="8" height="8" fill="#6495ed" rx="1"/>

    <!-- Bottom diamond (mirror) -->
    <rect x="-12" y="10" width="8" height="8" fill="#4a5568" rx="1"/>
    <rect x="4" y="10" width="8" height="8" fill="#4a5568" rx="1"/>
    <rect x="-20" y="20" width="8" height="8" fill="#4a5568" rx="1"/>
    <rect x="-4" y="20" width="8" height="8" fill="#4a5568" rx="1"/>
    <rect x="12" y="20" width="8" height="8" fill="#4a5568" rx="1"/>
    <rect x="-12" y="30" width="8" height="8" fill="#4a5568" rx="1"/>
    <rect x="4" y="30" width="8" height="8" fill="#4a5568" rx="1"/>
    <rect x="-4" y="40" width="8" height="8" fill="#6495ed" rx="1"/>
  </g>
</svg>
