<svg width="120" height="120" viewBox="0 0 120 120" xmlns="http://www.w3.org/2000/svg">
  <!-- Parchment background -->
  <rect width="120" height="120" fill="#f8f5f0"/>

  <g transform="translate(60, 60)">
    <!-- Kaleidoscope pattern with 8-way symmetry -->

    <!-- Center -->
    <rect x="-4" y="-4" width="8" height="8" fill="#6495ed" rx="1"/>

    <!-- Quadrant 1 (NE) pattern -->
    <rect x="4" y="-12" width="8" height="8" fill="#4a5568" rx="1"/>
    <rect x="12" y="-4" width="8" height="8" fill="#4a5568" rx="1"/>
    <rect x="12" y="-20" width="8" height="8" fill="#4a5568" rx="1"/>
    <rect x="20" y="-12" width="8" height="8" fill="#4a5568" rx="1"/>
    <rect x="20" y="-28" width="8" height="8" fill="#4a5568" rx="1"/>
    <rect x="28" y="-20" width="8" height="8" fill="#4a5568" rx="1"/>

    <!-- Quadrant 2 (SE) - mirror of Q1 -->
    <rect x="4" y="4" width="8" height="8" fill="#4a5568" rx="1"/>
    <rect x="12" y="12" width="8" height="8" fill="#4a5568" rx="1"/>
    <rect x="12" y="12" width="8" height="8" fill="#4a5568" rx="1"/>
    <rect x="20" y="4" width="8" height="8" fill="#4a5568" rx="1"/>
    <rect x="20" y="20" width="8" height="8" fill="#4a5568" rx="1"/>
    <rect x="28" y="12" width="8" height="8" fill="#4a5568" rx="1"/>

    <!-- Quadrant 3 (SW) - mirror of Q2 -->
    <rect x="-12" y="4" width="8" height="8" fill="#4a5568" rx="1"/>
    <rect x="-4" y="12" width="8" height="8" fill="#4a5568" rx="1"/>
    <rect x="-20" y="12" width="8" height="8" fill="#4a5568" rx="1"/>
    <rect x="-12" y="20" width="8" height="8" fill="#4a5568" rx="1"/>
    <rect x="-28" y="20" width="8" height="8" fill="#4a5568" rx="1"/>
    <rect x="-20" y="28" width="8" height="8" fill="#4a5568" rx="1"/>

    <!-- Quadrant 4 (NW) - mirror of Q1 -->
    <rect x="-12" y="-12" width="8" height="8" fill="#4a5568" rx="1"/>
    <rect x="-4" y="-4" width="8" height="8" fill="#4a5568" rx="1"/>
    <rect x="-20" y="-4" width="8" height="8" fill="#4a5568" rx="1"/>
    <rect x="-12" y="-20" width="8" height="8" fill="#4a5568" rx="1"/>
    <rect x="-28" y="-12" width="8" height="8" fill="#4a5568" rx="1"/>
    <rect x="-20" y="-28" width="8" height="8" fill="#4a5568" rx="1"/>

    <!-- Cardinal directions -->
    <rect x="-4" y="-20" width="8" height="8" fill="#4a5568" rx="1"/>
    <rect x="12" y="-4" width="8" height="8" fill="#4a5568" rx="1"/>
    <rect x="-4" y="12" width="8" height="8" fill="#4a5568" rx="1"/>
    <rect x="-20" y="-4" width="8" height="8" fill="#4a5568" rx="1"/>
  </g>
</svg>
