<svg width="120" height="120" viewBox="0 0 120 120" xmlns="http://www.w3.org/2000/svg">
  <!-- Parchment background -->
  <rect width="120" height="120" fill="#f8f5f0"/>

  <g transform="translate(60, 60)">
    <!-- Cross pattern blooming from center -->

    <!-- Center -->
    <rect x="-4" y="-4" width="8" height="8" fill="#6495ed" rx="1"/>

    <!-- North -->
    <rect x="-4" y="-12" width="8" height="8" fill="#4a5568" rx="1"/>
    <rect x="-4" y="-20" width="8" height="8" fill="#4a5568" rx="1"/>
    <rect x="-4" y="-28" width="8" height="8" fill="#4a5568" rx="1"/>
    <rect x="-4" y="-36" width="8" height="8" fill="#4a5568" rx="1"/>

    <!-- South -->
    <rect x="-4" y="4" width="8" height="8" fill="#4a5568" rx="1"/>
    <rect x="-4" y="12" width="8" height="8" fill="#4a5568" rx="1"/>
    <rect x="-4" y="20" width="8" height="8" fill="#4a5568" rx="1"/>
    <rect x="-4" y="28" width="8" height="8" fill="#4a5568" rx="1"/>

    <!-- East -->
    <rect x="4" y="-4" width="8" height="8" fill="#4a5568" rx="1"/>
    <rect x="12" y="-4" width="8" height="8" fill="#4a5568" rx="1"/>
    <rect x="20" y="-4" width="8" height="8" fill="#4a5568" rx="1"/>
    <rect x="28" y="-4" width="8" height="8" fill="#4a5568" rx="1"/>

    <!-- West -->
    <rect x="-12" y="-4" width="8" height="8" fill="#4a5568" rx="1"/>
    <rect x="-20" y="-4" width="8" height="8" fill="#4a5568" rx="1"/>
    <rect x="-28" y="-4" width="8" height="8" fill="#4a5568" rx="1"/>
    <rect x="-36" y="-4" width="8" height="8" fill="#4a5568" rx="1"/>

    <!-- Secondary blooms at ends -->
    <rect x="-12" y="-36" width="8" height="8" fill="#4a5568" rx="1"/>
    <rect x="4" y="-36" width="8" height="8" fill="#4a5568" rx="1"/>
    <rect x="28" y="-12" width="8" height="8" fill="#4a5568" rx="1"/>
    <rect x="28" y="4" width="8" height="8" fill="#4a5568" rx="1"/>
    <rect x="-12" y="28" width="8" height="8" fill="#4a5568" rx="1"/>
    <rect x="4" y="28" width="8" height="8" fill="#4a5568" rx="1"/>
    <rect x="-36" y="-12" width="8" height="8" fill="#4a5568" rx="1"/>
    <rect x="-36" y="4" width="8" height="8" fill="#4a5568" rx="1"/>
  </g>
</svg>
