<svg width="120" height="120" viewBox="0 0 120 120" xmlns="http://www.w3.org/2000/svg">
  <!-- Parchment background -->
  <rect width="120" height="120" fill="#f8f5f0"/>

  <g transform="translate(60, 60)">
    <!-- Mandala-like radial symmetric pattern -->

    <!-- Center -->
    <rect x="-4" y="-4" width="8" height="8" fill="#6495ed" rx="1"/>

    <!-- Inner ring (8 points) -->
    <rect x="-4" y="-16" width="8" height="8" fill="#4a5568" rx="1"/>
    <rect x="8" y="-12" width="8" height="8" fill="#4a5568" rx="1"/>
    <rect x="8" y="4" width="8" height="8" fill="#4a5568" rx="1"/>
    <rect x="-4" y="8" width="8" height="8" fill="#4a5568" rx="1"/>
    <rect x="-16" y="4" width="8" height="8" fill="#4a5568" rx="1"/>
    <rect x="-16" y="-12" width="8" height="8" fill="#4a5568" rx="1"/>
    <rect x="8" y="-4" width="8" height="8" fill="#4a5568" rx="1"/>
    <rect x="-16" y="-4" width="8" height="8" fill="#4a5568" rx="1"/>

    <!-- Mid ring (12 points) -->
    <rect x="-4" y="-28" width="8" height="8" fill="#4a5568" rx="1"/>
    <rect x="12" y="-24" width="8" height="8" fill="#4a5568" rx="1"/>
    <rect x="20" y="-12" width="8" height="8" fill="#4a5568" rx="1"/>
    <rect x="20" y="4" width="8" height="8" fill="#4a5568" rx="1"/>
    <rect x="12" y="16" width="8" height="8" fill="#4a5568" rx="1"/>
    <rect x="-4" y="20" width="8" height="8" fill="#4a5568" rx="1"/>
    <rect x="-20" y="16" width="8" height="8" fill="#4a5568" rx="1"/>
    <rect x="-28" y="4" width="8" height="8" fill="#4a5568" rx="1"/>
    <rect x="-28" y="-12" width="8" height="8" fill="#4a5568" rx="1"/>
    <rect x="-20" y="-24" width="8" height="8" fill="#4a5568" rx="1"/>
    <rect x="20" y="-4" width="8" height="8" fill="#4a5568" rx="1"/>
    <rect x="-28" y="-4" width="8" height="8" fill="#4a5568" rx="1"/>

    <!-- Outer accents (4 corners) -->
    <rect x="24" y="-28" width="8" height="8" fill="#4a5568" rx="1"/>
    <rect x="24" y="20" width="8" height="8" fill="#4a5568" rx="1"/>
    <rect x="-32" y="20" width="8" height="8" fill="#4a5568" rx="1"/>
    <rect x="-32" y="-28" width="8" height="8" fill="#4a5568" rx="1"/>
  </g>
</svg>
