<svg width="260" height="80" viewBox="0 0 260 80" xmlns="http://www.w3.org/2000/svg">
  <!-- Parchment background -->
  <rect width="260" height="80" fill="#f8f5f0"/>

  <!-- Compact diamond logo -->
  <g transform="translate(40, 40)">
    <!-- Top diamond -->
    <rect x="-4" y="-28" width="8" height="8" fill="#6495ed" rx="1"/>
    <rect x="-12" y="-20" width="8" height="8" fill="#4a5568" rx="1"/>
    <rect x="4" y="-20" width="8" height="8" fill="#4a5568" rx="1"/>
    <rect x="-20" y="-12" width="8" height="8" fill="#4a5568" rx="1"/>
    <rect x="-4" y="-12" width="8" height="8" fill="#4a5568" rx="1"/>
    <rect x="12" y="-12" width="8" height="8" fill="#4a5568" rx="1"/>
    <rect x="-12" y="-4" width="8" height="8" fill="#4a5568" rx="1"/>
    <rect x="4" y="-4" width="8" height="8" fill="#4a5568" rx="1"/>

    <!-- Center -->
    <rect x="-4" y="4" width="8" height="8" fill="#6495ed" rx="1"/>

    <!-- Bottom diamond -->
    <rect x="-12" y="12" width="8" height="8" fill="#4a5568" rx="1"/>
    <rect x="4" y="12" width="8" height="8" fill="#4a5568" rx="1"/>
    <rect x="-20" y="20" width="8" height="8" fill="#4a5568" rx="1"/>
    <rect x="-4" y="20" width="8" height="8" fill="#4a5568" rx="1"/>
    <rect x="12" y="20" width="8" height="8" fill="#4a5568" rx="1"/>
    <rect x="-12" y="28" width="8" height="8" fill="#4a5568" rx="1"/>
    <rect x="4" y="28" width="8" height="8" fill="#4a5568" rx="1"/>
    <rect x="-4" y="36" width="8" height="8" fill="#6495ed" rx="1"/>
  </g>

  <!-- Text: Time Tiles (with space) -->
  <text x="90" y="48" font-family="DM Sans, sans-serif" font-size="28" font-weight="500" fill="#404040" letter-spacing="-0.02em">Time Tiles</text>
</svg>
